<?xml version="1.0" encoding="UTF-8" standalone="no"?>
<!-- Created with Inkscape (http://www.inkscape.org/) -->
<svg
   xmlns:dc="http://purl.org/dc/elements/1.1/"
   xmlns:cc="http://web.resource.org/cc/"
   xmlns:rdf="http://www.w3.org/1999/02/22-rdf-syntax-ns#"
   xmlns:svg="http://www.w3.org/2000/svg"
   xmlns="http://www.w3.org/2000/svg"
   xmlns:sodipodi="http://sodipodi.sourceforge.net/DTD/sodipodi-0.dtd"
   xmlns:inkscape="http://www.inkscape.org/namespaces/inkscape"
   width="500"
   height="200"
   id="svg2310"
   sodipodi:version="0.32"
   inkscape:version="0.45.1"
   version="1.0"
   sodipodi:docbase="/user/vjuresch/home/workspace/ProActive/doc-src/images"
   sodipodi:docname="2components_2jvms.svg"
   inkscape:output_extension="org.inkscape.output.svg.inkscape"
   inkscape:export-filename="/user/vjuresch/home/workspace/ProActive/doc-src/images/2components_2jvms.png"
   inkscape:export-xdpi="90"
   inkscape:export-ydpi="90">
  <defs
     id="defs2312">
    <filter
       inkscape:collect="always"
       id="filter3429">
      <feGaussianBlur
         inkscape:collect="always"
         stdDeviation="2.0207255"
         id="feGaussianBlur3431" />
    </filter>
  </defs>
  <sodipodi:namedview
     id="base"
     pagecolor="#ffffff"
     bordercolor="#666666"
     borderopacity="1.0"
     gridtolerance="10000"
     guidetolerance="10"
     objecttolerance="10"
     inkscape:pageopacity="0.0"
     inkscape:pageshadow="2"
     inkscape:zoom="0.98994949"
     inkscape:cx="205.89407"
     inkscape:cy="174.11245"
     inkscape:document-units="px"
     inkscape:current-layer="layer1"
     height="200px"
     width="500px"
     inkscape:window-width="1040"
     inkscape:window-height="659"
     inkscape:window-x="423"
     inkscape:window-y="112" />
  <metadata
     id="metadata2315">
    <rdf:RDF>
      <cc:Work
         rdf:about="">
        <dc:format>image/svg+xml</dc:format>
        <dc:type
           rdf:resource="http://purl.org/dc/dcmitype/StillImage" />
      </cc:Work>
    </rdf:RDF>
  </metadata>
  <g
     inkscape:label="Layer 1"
     inkscape:groupmode="layer"
     id="layer1"
     transform="translate(48.040092,13.872832)">
    <g
       id="g2423"
       style="opacity:0.5;fill:#000000;fill-opacity:1;stroke:none;filter:url(#filter3429)"
       transform="matrix(1.5,0,0,1.5,-388.51675,-388.43727)">
      <path
         style="fill:#000000;fill-opacity:1;fill-rule:evenodd;stroke:none;stroke-width:0.83252996;stroke-linecap:butt;stroke-linejoin:round;stroke-miterlimit:4;stroke-dasharray:none;stroke-opacity:1"
         d="M 285.74367,263.75632 C 285.74367,263.75632 514.33207,263.71352 514.33207,263.71352 C 529.44185,263.75146 544.72129,273.72858 544.79474,283.6307 C 544.79474,283.6307 544.79474,358.38117 544.79474,358.38117 C 544.73786,368.38892 529.58105,378.29652 514.39829,378.30996 C 514.39829,378.30996 285.712,378.27793 285.712,378.27793 C 270.36683,378.2884 255.19005,368.30563 255.24623,358.30436 C 255.24623,358.30436 255.27112,283.65088 255.27112,283.65088 C 254.80673,273.69021 270.49215,263.71786 285.74367,263.75632 z "
         id="path2353"
         sodipodi:nodetypes="csssssssz" />
      <flowRoot
         xml:space="preserve"
         id="flowRoot2355"
         transform="translate(345.82842,249.49879)"
         style="fill:#000000;fill-opacity:1;stroke:none;font-family:Standard Symbols L"><flowRegion
           id="flowRegion2357"><rect
             id="rect2359"
             y="17.965977"
             x="43.436558"
             height="70.710678"
             width="104.04572"
             style="fill:#000000;fill-opacity:1;stroke:none;font-family:Standard Symbols L" /></flowRegion><flowPara
           id="flowPara2361"
           style="fill:#000000;fill-opacity:1;stroke:none;font-family:Aharoni CLM">Host</flowPara></flowRoot>      <path
         style="fill:#000000;fill-opacity:1;fill-rule:evenodd;stroke:none;stroke-width:0.62844676;stroke-linecap:butt;stroke-linejoin:round;stroke-miterlimit:4;stroke-dasharray:none;stroke-opacity:1"
         d="M 276.03457,282.07675 C 276.03457,282.07675 372.24314,282.04469 372.24314,282.04469 C 378.60253,282.07311 385.03337,289.55039 385.06427,296.97146 C 385.06427,296.97146 385.06427,352.99253 385.06427,352.99253 C 385.04033,360.49276 378.66111,367.91792 372.27099,367.92799 C 372.27099,367.92799 276.02123,367.904 276.02123,367.904 C 269.56274,367.91185 263.1751,360.43033 263.19877,352.93499 C 263.19877,352.93499 263.20925,296.98656 263.20925,296.98656 C 263.01379,289.52164 269.61548,282.04793 276.03457,282.07675 z "
         id="path2363"
         sodipodi:nodetypes="csssssssz" />
      <flowRoot
         xml:space="preserve"
         id="flowRoot2365"
         transform="translate(248.80476,260.48923)"
         style="fill:#000000;fill-opacity:1;stroke:none"><flowRegion
           id="flowRegion2367"><rect
             id="rect2369"
             y="25.037045"
             x="20.203051"
             height="47.477169"
             width="232.33508"
             style="fill:#000000;fill-opacity:1;stroke:none" /></flowRegion><flowPara
           id="flowPara2371"
           style="fill:#000000;fill-opacity:1;stroke:none;font-family:Aharoni CLM">Java Virtual Machine</flowPara></flowRoot>      <path
         style="fill:#000000;fill-opacity:1;fill-rule:evenodd;stroke:none;stroke-width:0.62844676;stroke-linecap:butt;stroke-linejoin:round;stroke-miterlimit:4;stroke-dasharray:none;stroke-opacity:1"
         d="M 429.18981,282.13494 C 429.18981,282.13494 525.39839,282.10288 525.39839,282.10288 C 531.75779,282.1313 538.18863,289.60857 538.21953,297.02965 C 538.21953,297.02965 538.21953,353.05071 538.21953,353.05071 C 538.19559,360.55094 531.81637,367.9761 525.42624,367.98618 C 525.42624,367.98618 429.17646,367.96218 429.17646,367.96218 C 422.71797,367.97003 416.33035,360.48852 416.35401,352.99317 C 416.35401,352.99317 416.36449,297.04474 416.36449,297.04474 C 416.16903,289.57983 422.77072,282.10612 429.18981,282.13494 z "
         id="path2373"
         sodipodi:nodetypes="csssssssz" />
      <g
         transform="translate(195.08854,-446.44568)"
         id="g2375"
         style="fill:#000000;fill-opacity:1;stroke:none">
        <path
           sodipodi:nodetypes="cc"
           style="fill:#000000;fill-opacity:1;fill-rule:evenodd;stroke:none;stroke-width:1px;stroke-linecap:butt;stroke-linejoin:miter;stroke-opacity:1"
           d="M 95.09409,775.97633 L 89.31728,775.97633"
           id="path2377" />
        <path
           style="fill:#000000;fill-opacity:1;fill-rule:evenodd;stroke:none;stroke-width:1px;stroke-linecap:butt;stroke-linejoin:miter;stroke-opacity:1"
           d="M 89.651786,771.82455 L 89.651786,780.12812"
           id="path2379" />
        <rect
           style="opacity:1;fill:#000000;fill-opacity:1;fill-rule:evenodd;stroke:none;stroke-width:0.898;stroke-linecap:butt;stroke-linejoin:miter;stroke-miterlimit:4;stroke-dasharray:none;stroke-dashoffset:0;stroke-opacity:1"
           id="rect2381"
           width="68.185295"
           height="43.436558"
           x="94.954346"
           y="754.25806" />
        <path
           sodipodi:nodetypes="cc"
           style="fill:#000000;fill-opacity:1;fill-rule:evenodd;stroke:none;stroke-width:1px;stroke-linecap:butt;stroke-linejoin:miter;stroke-opacity:1"
           d="M 163.18302,775.97633 L 168.95983,775.97633"
           id="path2383" />
        <path
           style="fill:#000000;fill-opacity:1;fill-rule:evenodd;stroke:none;stroke-width:1px;stroke-linecap:butt;stroke-linejoin:miter;stroke-opacity:1"
           d="M 168.62532,771.82455 L 168.62532,780.12812"
           id="path2385" />
        <path
           sodipodi:nodetypes="cc"
           style="fill:#000000;fill-opacity:1;fill-rule:evenodd;stroke:none;stroke-width:1px;stroke-linecap:butt;stroke-linejoin:miter;stroke-opacity:1"
           d="M 248.24125,775.97633 L 242.46444,775.97633"
           id="path2387" />
        <path
           style="fill:#000000;fill-opacity:1;fill-rule:evenodd;stroke:none;stroke-width:1px;stroke-linecap:butt;stroke-linejoin:miter;stroke-opacity:1"
           d="M 242.79895,771.82455 L 242.79895,780.12812"
           id="path2389" />
        <rect
           style="opacity:1;fill:#000000;fill-opacity:1;fill-rule:evenodd;stroke:none;stroke-width:0.898;stroke-linecap:butt;stroke-linejoin:miter;stroke-miterlimit:4;stroke-dasharray:none;stroke-dashoffset:0;stroke-opacity:1"
           id="rect2391"
           width="68.185295"
           height="43.436558"
           x="248.1015"
           y="754.25806" />
        <path
           sodipodi:nodetypes="cc"
           style="fill:#000000;fill-opacity:1;fill-rule:evenodd;stroke:none;stroke-width:1px;stroke-linecap:butt;stroke-linejoin:miter;stroke-opacity:1"
           d="M 316.33018,775.97633 L 322.10699,775.97633"
           id="path2393" />
        <path
           style="fill:#000000;fill-opacity:1;fill-rule:evenodd;stroke:none;stroke-width:1px;stroke-linecap:butt;stroke-linejoin:miter;stroke-opacity:1"
           d="M 321.77248,771.82455 L 321.77248,780.12812"
           id="path2395" />
        <path
           style="fill:#000000;fill-opacity:1;fill-rule:evenodd;stroke:none;stroke-width:1;stroke-linecap:butt;stroke-linejoin:miter;stroke-miterlimit:4;stroke-dasharray:4, 4;stroke-dashoffset:0;stroke-opacity:1"
           d="M 173.25893,775.97634 L 239.28571,775.97633"
           id="path2397"
           sodipodi:nodetypes="cc" />
      </g>
      <flowRoot
         transform="translate(165.7809,-242.66006)"
         id="flowRoot2399"
         xml:space="preserve"
         style="fill:#000000;fill-opacity:1;stroke:none"><flowRegion
           id="flowRegion2401"><rect
             y="565.93359"
             x="154.28572"
             height="61.42857"
             width="65"
             id="rect2403"
             style="fill:#000000;fill-opacity:1;stroke:none" /></flowRegion><flowPara
           style="fill:#000000;fill-opacity:1;stroke:none;font-family:Aharoni CLM"
           id="flowPara2405">A</flowPara></flowRoot>      <flowRoot
         xml:space="preserve"
         id="flowRoot2407"
         transform="translate(401.95191,260.55014)"
         style="fill:#000000;fill-opacity:1;stroke:none"><flowRegion
           id="flowRegion2409"><rect
             id="rect2411"
             y="25.037045"
             x="20.203051"
             height="47.477169"
             width="232.33508"
             style="fill:#000000;fill-opacity:1;stroke:none" /></flowRegion><flowPara
           id="flowPara2413"
           style="fill:#000000;fill-opacity:1;stroke:none;font-family:Aharoni CLM">Java Virtual Machine</flowPara></flowRoot>      <flowRoot
         transform="translate(318.85098,-242.64905)"
         id="flowRoot2415"
         xml:space="preserve"
         style="fill:#000000;fill-opacity:1;stroke:none"><flowRegion
           id="flowRegion2417"><rect
             y="565.93359"
             x="154.28572"
             height="61.42857"
             width="65"
             id="rect2419"
             style="fill:#000000;fill-opacity:1;stroke:none" /></flowRegion><flowPara
           style="fill:#000000;fill-opacity:1;stroke:none;font-family:Aharoni CLM"
           id="flowPara2421">B</flowPara></flowRoot>    </g>
    <path
       sodipodi:nodetypes="csssssssz"
       id="path4886"
       d="M 26.61497,-6.1131672 C 26.61497,-6.1131672 369.49759,-6.1773672 369.49759,-6.1773672 C 392.16226,-6.1204572 415.08142,8.8452228 415.19159,23.698403 C 415.19159,23.698403 415.19159,135.82412 415.19159,135.82412 C 415.10627,150.83574 392.37106,165.69714 369.59692,165.7173 C 369.59692,165.7173 26.567465,165.66926 26.567465,165.66926 C 3.5497103,165.68496 -19.21546,150.71081 -19.13119,135.7089 C -19.13119,135.7089 -19.093855,23.728673 -19.093855,23.728673 C -19.79044,8.7876678 3.7376903,-6.1708572 26.61497,-6.1131672 z "
       style="fill:#d0d0d0;fill-opacity:1;fill-rule:evenodd;stroke:#000800;stroke-width:1.24879491;stroke-linecap:butt;stroke-linejoin:round;stroke-miterlimit:4;stroke-dasharray:none;stroke-opacity:1" />
    <flowRoot
       style="font-family:Standard Symbols L"
       transform="matrix(1.5,0,0,1.5,116.74211,-27.499462)"
       id="flowRoot4888"
       xml:space="preserve"><flowRegion
         id="flowRegion4890"><rect
           style="font-family:Standard Symbols L"
           width="104.04572"
           height="70.710678"
           x="43.436558"
           y="17.965977"
           id="rect4892" /></flowRegion><flowPara
         style="font-family:Aharoni CLM"
         id="flowPara4894">Host</flowPara></flowRoot>    <path
       sodipodi:nodetypes="csssssssz"
       id="path4896"
       d="M 12.05132,21.367478 C 12.05132,21.367478 156.36419,21.319388 156.36419,21.319388 C 165.90328,21.362018 175.54954,32.577938 175.59589,43.709543 C 175.59589,43.709543 175.59589,127.74116 175.59589,127.74116 C 175.55998,138.9915 165.99115,150.12924 156.40597,150.14435 C 156.40597,150.14435 12.03131,150.10836 12.03131,150.10836 C 2.3435753,150.12014 -7.2378847,138.89786 -7.2023797,127.65485 C -7.2023797,127.65485 -7.1866597,43.732193 -7.1866597,43.732193 C -7.4798497,32.534813 2.4226853,21.324248 12.05132,21.367478 z "
       style="fill:#f0f0f0;fill-opacity:0.98039216;fill-rule:evenodd;stroke:#8cc8e1;stroke-width:0.94267011;stroke-linecap:butt;stroke-linejoin:round;stroke-miterlimit:4;stroke-dasharray:none;stroke-opacity:1" />
    <flowRoot
       transform="matrix(1.5,0,0,1.5,-28.793395,-11.013802)"
       id="flowRoot4898"
       xml:space="preserve"><flowRegion
         id="flowRegion4900"><rect
           width="232.33508"
           height="47.477169"
           x="20.203051"
           y="25.037045"
           id="rect4902" /></flowRegion><flowPara
         style="font-family:Aharoni CLM"
         id="flowPara4904">Java Virtual Machine</flowPara></flowRoot>    <path
       sodipodi:nodetypes="csssssssz"
       id="path4954"
       d="M 241.7842,21.454763 C 241.7842,21.454763 386.09707,21.406673 386.09707,21.406673 C 395.63617,21.449303 405.28243,32.665208 405.32878,43.796828 C 405.32878,43.796828 405.32878,127.82843 405.32878,127.82843 C 405.29287,139.07877 395.72404,150.21651 386.13884,150.23163 C 386.13884,150.23163 241.76417,150.19563 241.76417,150.19563 C 232.07644,150.20741 222.49501,138.98514 222.5305,127.74212 C 222.5305,127.74212 222.54622,43.819463 222.54622,43.819463 C 222.25303,32.622098 232.15556,21.411533 241.7842,21.454763 z "
       style="fill:#f0f0f0;fill-opacity:0.98039216;fill-rule:evenodd;stroke:#8cc8e1;stroke-width:0.94267011;stroke-linecap:butt;stroke-linejoin:round;stroke-miterlimit:4;stroke-dasharray:none;stroke-opacity:1" />
    <g
       id="g4906"
       transform="matrix(1.5,0,0,1.5,-109.36772,-1071.4161)">
      <path
         id="path4908"
         d="M 95.09409,775.97633 L 89.31728,775.97633"
         style="fill:none;fill-rule:evenodd;stroke:#000000;stroke-width:1px;stroke-linecap:butt;stroke-linejoin:miter;stroke-opacity:1"
         sodipodi:nodetypes="cc" />
      <path
         id="path4910"
         d="M 89.651786,771.82455 L 89.651786,780.12812"
         style="fill:none;fill-rule:evenodd;stroke:#000000;stroke-width:1px;stroke-linecap:butt;stroke-linejoin:miter;stroke-opacity:1" />
      <rect
         y="754.25806"
         x="94.954346"
         height="43.436558"
         width="68.185295"
         id="rect4912"
         style="opacity:1;fill:#ffffff;fill-opacity:1;fill-rule:evenodd;stroke:#815151;stroke-width:0.898;stroke-linecap:butt;stroke-linejoin:miter;stroke-miterlimit:4;stroke-dasharray:none;stroke-dashoffset:0;stroke-opacity:1" />
      <path
         id="path4914"
         d="M 163.18302,775.97633 L 168.95983,775.97633"
         style="fill:none;fill-rule:evenodd;stroke:#000000;stroke-width:1px;stroke-linecap:butt;stroke-linejoin:miter;stroke-opacity:1"
         sodipodi:nodetypes="cc" />
      <path
         id="path4916"
         d="M 168.62532,771.82455 L 168.62532,780.12812"
         style="fill:none;fill-rule:evenodd;stroke:#000000;stroke-width:1px;stroke-linecap:butt;stroke-linejoin:miter;stroke-opacity:1" />
      <path
         id="path4918"
         d="M 248.24125,775.97633 L 242.46444,775.97633"
         style="fill:none;fill-rule:evenodd;stroke:#000000;stroke-width:1px;stroke-linecap:butt;stroke-linejoin:miter;stroke-opacity:1"
         sodipodi:nodetypes="cc" />
      <path
         id="path4920"
         d="M 242.79895,771.82455 L 242.79895,780.12812"
         style="fill:none;fill-rule:evenodd;stroke:#000000;stroke-width:1px;stroke-linecap:butt;stroke-linejoin:miter;stroke-opacity:1" />
      <rect
         y="754.25806"
         x="248.1015"
         height="43.436558"
         width="68.185295"
         id="rect4922"
         style="opacity:1;fill:#ffffff;fill-opacity:1;fill-rule:evenodd;stroke:#815151;stroke-width:0.898;stroke-linecap:butt;stroke-linejoin:miter;stroke-miterlimit:4;stroke-dasharray:none;stroke-dashoffset:0;stroke-opacity:1" />
      <path
         id="path4924"
         d="M 316.33018,775.97633 L 322.10699,775.97633"
         style="fill:none;fill-rule:evenodd;stroke:#000000;stroke-width:1px;stroke-linecap:butt;stroke-linejoin:miter;stroke-opacity:1"
         sodipodi:nodetypes="cc" />
      <path
         id="path4926"
         d="M 321.77248,771.82455 L 321.77248,780.12812"
         style="fill:none;fill-rule:evenodd;stroke:#000000;stroke-width:1px;stroke-linecap:butt;stroke-linejoin:miter;stroke-opacity:1" />
      <path
         sodipodi:nodetypes="cc"
         id="path4928"
         d="M 173.25893,775.97634 L 239.28571,775.97633"
         style="fill:none;fill-rule:evenodd;stroke:#9c1515;stroke-width:1;stroke-linecap:butt;stroke-linejoin:miter;stroke-miterlimit:4;stroke-dasharray:4, 4;stroke-dashoffset:0;stroke-opacity:1" />
    </g>
    <flowRoot
       xml:space="preserve"
       id="flowRoot4930"
       transform="matrix(1.5,0,0,1.5,-153.32918,-765.73773)"><flowRegion
         id="flowRegion4932"><rect
           id="rect4934"
           width="65"
           height="61.42857"
           x="154.28572"
           y="565.93359" /></flowRegion><flowPara
         id="flowPara4936"
         style="font-family:Aharoni CLM">A</flowPara></flowRoot>    <flowRoot
       transform="matrix(1.5,0,0,1.5,200.92735,-10.922437)"
       id="flowRoot4956"
       xml:space="preserve"><flowRegion
         id="flowRegion4958"><rect
           width="232.33508"
           height="47.477169"
           x="20.203051"
           y="25.037045"
           id="rect4960" /></flowRegion><flowPara
         style="font-family:Aharoni CLM"
         id="flowPara4962">Java Virtual Machine</flowPara></flowRoot>    <flowRoot
       xml:space="preserve"
       id="flowRoot4938"
       transform="matrix(1.5,0,0,1.5,76.275945,-765.72121)"><flowRegion
         id="flowRegion4940"><rect
           id="rect4942"
           width="65"
           height="61.42857"
           x="154.28572"
           y="565.93359" /></flowRegion><flowPara
         id="flowPara4944"
         style="font-family:Aharoni CLM">B</flowPara></flowRoot>  </g>
</svg>
