/* XPM */
static char * alt_launcher_xpm[] = {
"48 48 533 2",
"  	c None",
". 	c #F4AD88",
"+ 	c #F29A6C",
"@ 	c #EF8046",
"# 	c #F3AC86",
"$ 	c #EF8750",
"% 	c #EE7B3E",
"& 	c #EF864E",
"* 	c #FCFBFC",
"= 	c #ECEBF0",
"- 	c #DFDEE7",
"; 	c #E0DFE8",
"> 	c #EAE9EF",
", 	c #F19260",
"' 	c #EE7C3F",
") 	c #F29D70",
"! 	c #F4F3F6",
"~ 	c #C2C1D1",
"{ 	c #ABADC3",
"] 	c #4A4F7E",
"^ 	c #30396E",
"/ 	c #262E67",
"( 	c #232C65",
"_ 	c #8386A7",
": 	c #DBDBE5",
"< 	c #575C88",
"[ 	c #A8AAC1",
"} 	c #CDCBD9",
"| 	c #F5F4F7",
"1 	c #F29767",
"2 	c #EF8045",
"3 	c #9B9EB8",
"4 	c #3D4477",
"5 	c #353B70",
"6 	c #525885",
"7 	c #1E2862",
"8 	c #444B7C",
"9 	c #878AA9",
"0 	c #6D7097",
"a 	c #A8A9C0",
"b 	c #9D9DB7",
"c 	c #4B5381",
"d 	c #6C6E94",
"e 	c #B8B8CB",
"f 	c #F3A57C",
"g 	c #EF8349",
"h 	c #E2E2EA",
"i 	c #F0EFF3",
"j 	c #30386E",
"k 	c #363D71",
"l 	c #7A7EA1",
"m 	c #4F5482",
"n 	c #6A6D95",
"o 	c #8B8BAA",
"p 	c #8D91AF",
"q 	c #484E7E",
"r 	c #5B608B",
"s 	c #9899B4",
"t 	c #43497A",
"u 	c #3A4074",
"v 	c #9092AF",
"w 	c #6F7298",
"x 	c #AAABC2",
"y 	c #F0905C",
"z 	c #FBFAFB",
"A 	c #999BB6",
"B 	c #363B70",
"C 	c #9B9CB7",
"D 	c #6E7097",
"E 	c #696C94",
"F 	c #A4A6BE",
"G 	c #ECEBF1",
"H 	c #474E7E",
"I 	c #2F376C",
"J 	c #7D7D9F",
"K 	c #202A63",
"L 	c #293169",
"M 	c #717499",
"N 	c #252E66",
"O 	c #6E7197",
"P 	c #686D94",
"Q 	c #B5B6CA",
"R 	c #212B64",
"S 	c #272F67",
"T 	c #5E638D",
"U 	c #9EA1BA",
"V 	c #F29E71",
"W 	c #EE7B3F",
"X 	c #F08A54",
"Y 	c #FAF9FB",
"Z 	c #ABA9C0",
"` 	c #727499",
" .	c #6A6E95",
"..	c #74789D",
"+.	c #222C65",
"@.	c #2D346B",
"#.	c #283169",
"$.	c #787C9F",
"%.	c #222B65",
"&.	c #6F7399",
"*.	c #252E67",
"=.	c #696D95",
"-.	c #8486A6",
";.	c #C6C6D5",
">.	c #6B6E95",
",.	c #212A64",
"'.	c #1F2963",
").	c #EF8850",
"!.	c #EBEAF0",
"~.	c #535986",
"{.	c #222B64",
"].	c #6C7097",
"^.	c #7A7C9F",
"/.	c #283269",
"(.	c #696C93",
"_.	c #404678",
":.	c #4D5382",
"<.	c #353D71",
"[.	c #3B4376",
"}.	c #5B5F8A",
"|.	c #A6A8BF",
"1.	c #F08D58",
"2.	c #EF8248",
"3.	c #CFCEDB",
"4.	c #B9B8CB",
"5.	c #646992",
"6.	c #646991",
"7.	c #8A8BAB",
"8.	c #8083A5",
"9.	c #6B6F96",
"0.	c #A2A4BD",
"a.	c #787B9F",
"b.	c #434A7B",
"c.	c #222A63",
"d.	c #70749A",
"e.	c #3D4577",
"f.	c #626791",
"g.	c #2C356B",
"h.	c #8382A3",
"i.	c #7C7FA2",
"j.	c #424879",
"k.	c #F7F6F8",
"l.	c #F1905C",
"m.	c #F08C57",
"n.	c #F3A37A",
"o.	c #F29B6E",
"p.	c #666790",
"q.	c #D6D5E1",
"r.	c #898CAB",
"s.	c #252D66",
"t.	c #212962",
"u.	c #6F7299",
"v.	c #474F7E",
"w.	c #FAF9FA",
"x.	c #9699B5",
"y.	c #484E7D",
"z.	c #242D65",
"A.	c #686B93",
"B.	c #75789C",
"C.	c #75799D",
"D.	c #384073",
"E.	c #E1E0E9",
"F.	c #F5F1F3",
"G.	c #F19361",
"H.	c #F08B56",
"I.	c #F08E5A",
"J.	c #D5D5E0",
"K.	c #71759A",
"L.	c #293168",
"M.	c #73769B",
"N.	c #2F386E",
"O.	c #8385A6",
"P.	c #8F91AF",
"Q.	c #41497A",
"R.	c #B3B2C6",
"S.	c #454C7C",
"T.	c #686C94",
"U.	c #6E7298",
"V.	c #9193B0",
"W.	c #212A63",
"X.	c #6C6F95",
"Y.	c #565A86",
"Z.	c #464B7B",
"`.	c #6B6C93",
" +	c #C78872",
".+	c #F08B55",
"++	c #D1D1DD",
"@+	c #7B7DA0",
"#+	c #242E66",
"$+	c #525785",
"%+	c #C7C6D5",
"&+	c #DCDCE5",
"*+	c #5B618B",
"=+	c #494F7F",
"-+	c #555B87",
";+	c #75779C",
">+	c #707298",
",+	c #A9AAC1",
"'+	c #5E628C",
")+	c #525A86",
"!+	c #72759A",
"~+	c #A5A5BD",
"{+	c #6D6F96",
"]+	c #CF8E77",
"^+	c #CDCCD9",
"/+	c #77799D",
"(+	c #1F2862",
"_+	c #3D4476",
":+	c #BDBACC",
"<+	c #4D5180",
"[+	c #2B3269",
"}+	c #1F2962",
"|+	c #73759A",
"1+	c #2A3168",
"2+	c #9C9EB8",
"3+	c #2F366C",
"4+	c #ADAEC4",
"5+	c #EEEDF2",
"6+	c #31376D",
"7+	c #4E5482",
"8+	c #AF6C5D",
"9+	c #EF854D",
"0+	c #8A8DAB",
"a+	c #3B4275",
"b+	c #32396E",
"c+	c #7D7EA0",
"d+	c #353C70",
"e+	c #7C7EA0",
"f+	c #666A93",
"g+	c #454B7B",
"h+	c #4C5281",
"i+	c #6C6F96",
"j+	c #787A9D",
"k+	c #AEAFC5",
"l+	c #9497B4",
"m+	c #343D71",
"n+	c #5D638D",
"o+	c #915752",
"p+	c #F1925F",
"q+	c #78799C",
"r+	c #262E66",
"s+	c #7B7EA1",
"t+	c #6E7096",
"u+	c #8C8FAD",
"v+	c #202962",
"w+	c #7B7B9E",
"x+	c #4D5281",
"y+	c #9FA0BA",
"z+	c #3E4476",
"A+	c #7C7C9F",
"B+	c #905552",
"C+	c #C86C47",
"D+	c #CAC2CB",
"E+	c #F2F1F5",
"F+	c #61658E",
"G+	c #E5E4EC",
"H+	c #656B93",
"I+	c #2B336A",
"J+	c #2B346B",
"K+	c #989AB5",
"L+	c #6D7197",
"M+	c #8285A6",
"N+	c #8D8FAE",
"O+	c #42497A",
"P+	c #676B93",
"Q+	c #30386D",
"R+	c #707197",
"S+	c #8F5552",
"T+	c #ED7B3E",
"U+	c #C06946",
"V+	c #2F2F60",
"W+	c #8688A9",
"X+	c #F4F4F7",
"Y+	c #F9F8FA",
"Z+	c #ADACC2",
"`+	c #B3B4C8",
" @	c #D0CFDC",
".@	c #5D628D",
"+@	c #626790",
"@@	c #585D89",
"#@	c #8C8EAD",
"$@	c #464D7D",
"%@	c #484F7E",
"&@	c #ACADC3",
"*@	c #707399",
"=@	c #D0D0DD",
"-@	c #7E81A3",
";@	c #343A70",
">@	c #666A91",
",@	c #C07B63",
"'@	c #B16854",
")@	c #646185",
"!@	c #7B7B9F",
"~@	c #EDECF1",
"{@	c #7C7FA1",
"]@	c #76789C",
"^@	c #77789C",
"/@	c #333A6F",
"(@	c #363F73",
"_@	c #7C7EA1",
":@	c #636891",
"<@	c #6C7096",
"[@	c #323B70",
"}@	c #242D66",
"|@	c #AFB1C6",
"1@	c #8F91AE",
"2@	c #545B87",
"3@	c #535A86",
"4@	c #454977",
"5@	c #A66759",
"6@	c #D89072",
"7@	c #272F66",
"8@	c #60638D",
"9@	c #E3E2EA",
"0@	c #444B7B",
"a@	c #273068",
"b@	c #6B6D94",
"c@	c #656A92",
"d@	c #30376D",
"e@	c #5C618C",
"f@	c #252B61",
"g@	c #AF6249",
"h@	c #EC7B40",
"i@	c #8B595A",
"j@	c #707196",
"k@	c #72749A",
"l@	c #E4E3EB",
"m@	c #9E9FB9",
"n@	c #8587A7",
"o@	c #676A93",
"p@	c #2E366C",
"q@	c #64678F",
"r@	c #D4D4E0",
"s@	c #D5D3DF",
"t@	c #232B64",
"u@	c #202963",
"v@	c #282E64",
"w@	c #B3644B",
"x@	c #A37675",
"y@	c #77779B",
"z@	c #A6A6BE",
"A@	c #8487A8",
"B@	c #595E8A",
"C@	c #F1F0F4",
"D@	c #5C608B",
"E@	c #575B87",
"F@	c #7F82A4",
"G@	c #B1B1C6",
"H@	c #B8B8CC",
"I@	c #797DA0",
"J@	c #49507F",
"K@	c #5C628C",
"L@	c #4F456B",
"M@	c #D27043",
"N@	c #E07541",
"O@	c #544364",
"P@	c #9799B5",
"Q@	c #DAD9E4",
"R@	c #6F7197",
"S@	c #5F658F",
"T@	c #9798B4",
"U@	c #B6B6C9",
"V@	c #535885",
"W@	c #4A507F",
"X@	c #595D89",
"Y@	c #73779C",
"Z@	c #7E80A3",
"`@	c #6D6F95",
" #	c #866570",
".#	c #E77D47",
"+#	c #CF734B",
"@#	c #89798E",
"##	c #696A90",
"$#	c #8A8DAC",
"%#	c #C4C3D3",
"&#	c #CCCBDA",
"*#	c #BCB6C4",
"=#	c #8D8EAD",
"-#	c #6B6E96",
";#	c #A4A4BC",
">#	c #7F82A3",
",#	c #DEDEE7",
"'#	c #4A5180",
")#	c #76799D",
"!#	c #404779",
"~#	c #76789D",
"{#	c #4C4E7B",
"]#	c #935853",
"^#	c #AC614C",
"/#	c #2E2E60",
"(#	c #3C4476",
"_#	c #F4AD87",
":#	c #F3F2F6",
"<#	c #75779B",
"[#	c #2E356C",
"}#	c #B7B7CB",
"|#	c #565B88",
"1#	c #74769A",
"2#	c #40365E",
"3#	c #CB7958",
"4#	c #EA7B41",
"5#	c #7E5057",
"6#	c #707398",
"7#	c #686B94",
"8#	c #F5B28E",
"9#	c #B4B4C8",
"0#	c #2A3269",
"a#	c #787B9E",
"b#	c #976D70",
"c#	c #E47740",
"d#	c #CF7148",
"e#	c #A58C95",
"f#	c #3F4678",
"g#	c #3A4275",
"h#	c #5C5F8A",
"i#	c #2C346B",
"j#	c #74779C",
"k#	c #9594B1",
"l#	c #C6C4D4",
"m#	c #363E72",
"n#	c #2D366C",
"o#	c #6A6D94",
"p#	c #4C5180",
"q#	c #3C4275",
"r#	c #3F3761",
"s#	c #B5654B",
"t#	c #A35D4C",
"u#	c #2B2D61",
"v#	c #414879",
"w#	c #4F5483",
"x#	c #4D5482",
"y#	c #A6A7BF",
"z#	c #656991",
"A#	c #4C5382",
"B#	c #444C7C",
"C#	c #C7C7D6",
"D#	c #A9A9C1",
"E#	c #EDEDF2",
"F#	c #F4AA83",
"G#	c #B0B1C5",
"H#	c #202A64",
"I#	c #74789C",
"J#	c #AAA2B5",
"K#	c #B17566",
"L#	c #EB7A3F",
"M#	c #D17146",
"N#	c #997A83",
"O#	c #71769A",
"P#	c #62668F",
"Q#	c #2A326A",
"R#	c #393F73",
"S#	c #B1B2C7",
"T#	c #F2A378",
"U#	c #7A7EA0",
"V#	c #2F376D",
"W#	c #79789B",
"X#	c #876774",
"Y#	c #E57E4B",
"Z#	c #E77941",
"`#	c #9E655D",
" $	c #736F90",
".$	c #8485A6",
"+$	c #6E7399",
"@$	c #F8F7F9",
"#$	c #545986",
"$$	c #777A9E",
"%$	c #868AA9",
"&$	c #FAF8FA",
"*$	c #F08953",
"=$	c #FBFAFC",
"-$	c #9E9FBA",
";$	c #67658B",
">$	c #875A5F",
",$	c #D17147",
"'$	c #B2654E",
")$	c #8A788C",
"!$	c #5D628C",
"~$	c #4E5381",
"{$	c #A1A3BC",
"]$	c #EF7F45",
"^$	c #ECA987",
"/$	c #DA7647",
"($	c #CE744D",
"_$	c #7D5C6B",
":$	c #7E80A2",
"<$	c #545A87",
"[$	c #9F9FB9",
"}$	c #A6A8C0",
"|$	c #60648E",
"1$	c #EE7E42",
"2$	c #F19665",
"3$	c #F08F5B",
"4$	c #F19362",
"5$	c #F08952",
"6$	c #EE7C40",
"7$	c #D6784E",
"8$	c #654458",
"9$	c #262D64",
"0$	c #263068",
"a$	c #333B70",
"b$	c #8A8BAA",
"c$	c #7D7FA2",
"d$	c #666992",
"e$	c #5A608B",
"f$	c #33396E",
"g$	c #A2A4BC",
"h$	c #EE7D41",
"i$	c #F1915F",
"j$	c #F5B695",
"k$	c #DDDBE4",
"l$	c #666B93",
"m$	c #2E356B",
"n$	c #9A9CB7",
"o$	c #6E6F96",
"p$	c #7B7DA1",
"q$	c #72769B",
"r$	c #EBEBF0",
"s$	c #F1996A",
"t$	c #EF8147",
"u$	c #F29E72",
"v$	c #DADAE4",
"w$	c #505684",
"x$	c #373E72",
"y$	c #8687A8",
"z$	c #CDCCDA",
"A$	c #DDDDE6",
"B$	c #E9E9EF",
"C$	c #D4D4DF",
"D$	c #BCBDCF",
"E$	c #B2B3C7",
"F$	c #BFC0D1",
"G$	c #D3D4E0",
"H$	c #E6E5EC",
"                                                                                                ",
"                                                                                                ",
"                                                                                                ",
"                                                                                                ",
"                                                                                                ",
"                                                                                                ",
"                                                                                              . ",
"                                                                                          + @ # ",
"                                                                                        $ % &   ",
"                                  * = - ; > * *                                     , ' % % )   ",
"                            ! ~ { ] ^ / ( _ : < [ } |                           1 @ % % % 2     ",
"                        * 3 4 5 6 7 7 7 8 9 0 a b c d e !                   f g % % % % % ,     ",
"                      h i j 7 k l m n o p q r s t u v w x *               y ' % % % % % %       ",
"                  z A B C D E F G H I J K L M N O P Q R S T U z       V 2 W % % % % % % X       ",
"                Y Z `  ...7 7 +.@.#.$.%.7 &.*.7 =.-.;.>.,.7 '.Q *           ).% % % % % +       ",
"                !.~.{.7 ].K 7 7 N ^./.7 #.(.7 7 _.:.,.<.^.S [.}.|.        1.% % % % % 2.        ",
"              3.4.5.6.=.7.8. .9.0.a.b.c.d.e.7 7 *.f.7 7 g.h.i.R j.k.    l.% % % m.n.% o.        ",
"            | p.q.r.s.7 t.` '.u.k ( v.8.w.x.y.z.'.A.7 7 7 B.C.7 D.E.F.G.% % % H.    I.          ",
"            J.K.L.M.N.7 7 O.P.Q.7 7 7 L.R.S.8 T.U.V.#.W.X.j.Y.Z.7 `. +% % % .+                  ",
"          * ++R 7 +.@+#+$+%+&+7 7 7 7 *+=+-+7 7 7 ;+>+,+'+)+!+~+{+]+% % % &                     ",
"          ^+/+(+7 7 _+:+<+[+{+7 7 7 }+|+W.A.7 7 1+: 2+3+4+5+6+7+8+% % % 9+                      ",
"          0+< a+7 b+c+d+e+j f+7 7 7 g+h+7 i+( Y.j+k+l+[+m+n+c.o+% % % p+                        ",
"        * Y.K q+r+s+%.7 {.t+u+v+7 (+w+R x+y+0 z+7 7 N A+( v+B+% % % C+D+                        ",
"        E+D.}+F+G+H+I+s.S J+P.K+L+M+N+>.O+P+7 7 7 7 7 Q+R+S+T+% % U+V+W+X+                      ",
"        Y+Z+&.`+ @~+.@+@5.@@#@$@%@&@*@6.~.=@-@b+b+;@$@>@,@% % % '@)@'.!@~@                      ",
"        k.{@]@^@/@(@_@g.7 7 :@N <@[@7 }@a+|@1@2@r 3@4@5@% % % 6@7@=.-+8@5+                      ",
"        9@8@0@9.7 7 a@b@c@d@e@w ~.7 7 7 7 ,.O 7 7 f@g@% % h@i@j@7 k@l@m@E+                      ",
"        i n@7 o@7 7 7 7 p@q@r@s@t@7 7 7 7 7 O u@v@w@% % T+x@y@<.N.z@A@B@C@                      ",
"        * D@7 f+7 7 7 7 7 E@F@G@H@I@J@R 7 7 K@L@M@% % N@O@P@Q@R@S@>.1+T@*                       ",
"          U@X.K.'.7 7 ( ].V@7 W@X@Y@Z@D b@`@ #.#% % +#@###$#%#L.7 E ,.&#                        ",
"          *#a@=#w -# .;#>#,#'#7 )#N !#~#{#]#% % % ^#/#7 7 r (#5.7 f+K l@                        ",
"        _#:#m Q r <#e@[#=+}#|#7 3+1#(+2#3#% % 4#5#7 7 7 7 6#}+d.+.7#$#*                         ",
"      8#    9#J.-.0#7 7 7 '.a#( 7 g+b#c#% % d#e#Y@f#}@7 g#h#7 i#j#k#l#                          ",
"            :#m#n#o#O p#R -+q#i+r#s#% % % t#u#v#w#x# .].y#z#A#B#C#D#E#                          ",
"    F#        G#H#7 H#O+I#5+J#K#L#% % M#N#O#i#a@P#+.e.X.D.Q#R#x+S#l@                            ",
"  T#          Y+U#a@V#P#W#X#Y#% % Z#`# $.$w.6.7 P++$@$#$7 7 (#$$%$&$                            ",
"  *$            =$-$;$>$,$% % % '$)$i#7 (+!$~$7 s+F@{$u.u+A e@6.Y+                              ",
"  ]$)             ^$/$% % % ($_$u@#+:$L.7 '.;+<$[$6+P#7 }$|$$$C@                                ",
"  % 1$2$G.3$4$5$6$% % % 7$8$9$*@7 7 0$s+[@a$b$c$d$e$f$7 ^.g$@$                                  ",
"  h$% % % % % % % 1$i$j$k$].N l$m$7 7 b.z@n$z.o$p$M.a@q$r$                                      ",
"  s$h$% % % t$m.u$          v$a = P.1#w$( x$R@y$:#z$A$z                                         ",
"                                * B$C$D$E$F$G$H$*                                               ",
"                                                                                                ",
"                                                                                                ",
"                                                                                                ",
"                                                                                                ",
"                                                                                                ",
"                                                                                                "};
