<?xml version="1.0" encoding="UTF-8" standalone="no"?>
<!-- Created with Inkscape (http://www.inkscape.org/) -->
<svg
   xmlns:xml="http://www.w3.org/XML/1998/namespace"
   xmlns:dc="http://purl.org/dc/elements/1.1/"
   xmlns:cc="http://web.resource.org/cc/"
   xmlns:rdf="http://www.w3.org/1999/02/22-rdf-syntax-ns#"
   xmlns:svg="http://www.w3.org/2000/svg"
   xmlns="http://www.w3.org/2000/svg"
   xmlns:sodipodi="http://inkscape.sourceforge.net/DTD/sodipodi-0.dtd"
   xmlns:inkscape="http://www.inkscape.org/namespaces/inkscape"
   inkscape:export-ydpi="90.000000"
   inkscape:export-xdpi="90.000000"
   inkscape:export-filename="/user/acontes/home/dev/ProActive/src/org/objectweb/proactive/doc-files/security_images/activeObjects.png"
   id="svg1"
   sodipodi:version="0.32"
   inkscape:version="0.41"
   width="640.00000px"
   height="200.00000px"
   sodipodi:docbase="/user/acontes/home/dev/ProActive/src/org/objectweb/proactive/doc-files/security_images"
   sodipodi:docname="activeObjects.svg">
  <defs
     id="defs3">
    <marker
       style="overflow:visible;"
       id="Arrow1M"
       refX="0.0"
       refY="0.0"
       orient="auto"
       inkscape:stockid="Arrow1M">
      <path
         transform="scale(0.4)"
         style="fill-rule:evenodd;stroke:#000000;stroke-width:1.0pt;marker-start:none;"
         d="M 0.0,0.0 L 5.0,-5.0 L -12.5,0.0 L 5.0,5.0 L 0.0,0.0 z "
         id="path2262"
         sodipodi:nodetypes="ccccc" />
    </marker>
  </defs>
  <sodipodi:namedview
     id="base"
     pagecolor="#ffffff"
     bordercolor="#666666"
     borderopacity="1.0"
     inkscape:pageopacity="1.0000000"
     inkscape:pageshadow="2"
     inkscape:zoom="0.90407901"
     inkscape:cx="209.95896"
     inkscape:cy="29.397606"
     inkscape:window-width="1134"
     inkscape:window-height="894"
     showguides="true"
     inkscape:guide-bbox="true"
     inkscape:window-x="23"
     inkscape:window-y="0"
     inkscape:current-layer="svg1"
     inkscape:document-units="px"
     guidetolerance="0.50000000px" />
  <metadata
     id="metadata4">
    <rdf:RDF
       id="RDF5">
      <cc:Work
         rdf:about=""
         id="Work6">
        <dc:format
           id="format7">image/svg+xml</dc:format>
        <dc:type
           id="type9"
           rdf:resource="http://purl.org/dc/dcmitype/StillImage" />
      </cc:Work>
    </rdf:RDF>
  </metadata>
  <rect
     style="fill:#ffffff;fill-opacity:1.0000000;fill-rule:nonzero;stroke:none;stroke-width:1.2500000;stroke-linecap:butt;stroke-linejoin:miter;stroke-miterlimit:4.0000000;stroke-dasharray:5.0000000 5.0000000 ;stroke-dashoffset:0.0000000;stroke-opacity:1.0000000"
     id="rect1417"
     width="619.75269"
     height="196.88545"
     x="2.2121961"
     y="3.2563117"
     rx="4.6942143"
     ry="4.6942143" />
  <rect
     style="fill:#e2ffff;fill-opacity:1.0000000;fill-rule:evenodd;stroke:#000000;stroke-width:1.0960592;stroke-linecap:butt;stroke-linejoin:miter;stroke-miterlimit:4.0000000;stroke-dasharray:3.2881773 3.2881773 ;stroke-dashoffset:0.0000000;stroke-opacity:1.0000000"
     id="rect908"
     width="175.82819"
     height="131.04871"
     x="12.587667"
     y="17.295630"
     rx="9.0993061"
     ry="9.6150169" />
  <path
     sodipodi:type="arc"
     style="fill:#ff0000;fill-opacity:0.75000000;fill-rule:evenodd;stroke:#000000;stroke-width:1.0000000pt;stroke-linecap:butt;stroke-linejoin:miter;stroke-opacity:1.0000000"
     id="path1532"
     sodipodi:cx="66.425110"
     sodipodi:cy="79.397659"
     sodipodi:rx="26.134470"
     sodipodi:ry="14.700639"
     d="M 92.559580 79.397659 A 26.134470 14.700639 0 1 1  40.290640,79.397659 A 26.134470 14.700639 0 1 1  92.559580 79.397659 z"
     transform="matrix(0.609232,0.000000,0.000000,0.658788,6.113397,-17.78183)" />
  <path
     sodipodi:type="arc"
     style="fill:#ffffff;fill-opacity:1.0000000;fill-rule:evenodd;stroke:#000000;stroke-width:1.0000000pt;stroke-linecap:butt;stroke-linejoin:miter;stroke-opacity:1.0000000"
     id="path1533"
     sodipodi:cx="66.425110"
     sodipodi:cy="79.397659"
     sodipodi:rx="26.134470"
     sodipodi:ry="14.700639"
     d="M 92.559580 79.397659 A 26.134470 14.700639 0 1 1  40.290640,79.397659 A 26.134470 14.700639 0 1 1  92.559580 79.397659 z"
     transform="matrix(0.609232,0.000000,0.000000,0.658788,116.3963,-10.14321)" />
  <path
     sodipodi:type="arc"
     style="fill:#ffffff;fill-opacity:1.0000000;fill-rule:evenodd;stroke:#000000;stroke-width:1.0000000pt;stroke-linecap:butt;stroke-linejoin:miter;stroke-opacity:1.0000000"
     id="path1534"
     sodipodi:cx="66.425110"
     sodipodi:cy="79.397659"
     sodipodi:rx="26.134470"
     sodipodi:ry="14.700639"
     d="M 92.559580 79.397659 A 26.134470 14.700639 0 1 1  40.290640,79.397659 A 26.134470 14.700639 0 1 1  92.559580 79.397659 z"
     transform="matrix(0.609232,0.000000,0.000000,0.658788,111.6222,51.92078)" />
  <path
     sodipodi:type="arc"
     style="fill:#ffffff;fill-opacity:1.0000000;fill-rule:evenodd;stroke:#000000;stroke-width:1.0000000pt;stroke-linecap:butt;stroke-linejoin:miter;stroke-opacity:1.0000000"
     id="path1535"
     sodipodi:cx="66.425110"
     sodipodi:cy="79.397659"
     sodipodi:rx="26.134470"
     sodipodi:ry="14.700639"
     d="M 92.559580 79.397659 A 26.134470 14.700639 0 1 1  40.290640,79.397659 A 26.134470 14.700639 0 1 1  92.559580 79.397659 z"
     transform="matrix(0.609232,0.000000,0.000000,0.658788,36.19054,36.64350)" />
  <path
     sodipodi:type="arc"
     style="fill:#ffffff;fill-opacity:1.0000000;fill-rule:evenodd;stroke:#000000;stroke-width:1.0000000pt;stroke-linecap:butt;stroke-linejoin:miter;stroke-opacity:1.0000000"
     id="path1536"
     sodipodi:cx="66.425110"
     sodipodi:cy="79.397659"
     sodipodi:rx="26.134470"
     sodipodi:ry="14.700639"
     d="M 92.559580 79.397659 A 26.134470 14.700639 0 1 1  40.290640,79.397659 A 26.134470 14.700639 0 1 1  92.559580 79.397659 z"
     transform="matrix(0.609232,0.000000,0.000000,0.658788,1.816645,64.33361)" />
  <path
     sodipodi:type="arc"
     style="fill:#ffffff;fill-opacity:1.0000000;fill-rule:evenodd;stroke:#000000;stroke-width:1.0000000pt;stroke-linecap:butt;stroke-linejoin:miter;stroke-opacity:1.0000000"
     id="path1537"
     sodipodi:cx="66.425110"
     sodipodi:cy="79.397659"
     sodipodi:rx="26.134470"
     sodipodi:ry="14.700639"
     d="M 92.559580 79.397659 A 26.134470 14.700639 0 1 1  40.290640,79.397659 A 26.134470 14.700639 0 1 1  92.559580 79.397659 z"
     transform="matrix(0.609232,0.000000,0.000000,0.658788,47.64852,74.83673)" />
  <path
     sodipodi:type="arc"
     style="fill:#ffffff;fill-opacity:1.0000000;fill-rule:evenodd;stroke:#000000;stroke-width:1.0000000pt;stroke-linecap:butt;stroke-linejoin:miter;stroke-opacity:1.0000000"
     id="path1538"
     sodipodi:cx="66.425110"
     sodipodi:cy="79.397659"
     sodipodi:rx="26.134470"
     sodipodi:ry="14.700639"
     d="M 92.559580 79.397659 A 26.134470 14.700639 0 1 1  40.290640,79.397659 A 26.134470 14.700639 0 1 1  92.559580 79.397659 z"
     transform="matrix(0.609232,0.000000,0.000000,0.658788,119.2609,77.70123)" />
  <path
     style="fill:none;fill-opacity:0.75000000;fill-rule:evenodd;stroke:#000000;stroke-width:0.87684736pt;stroke-linecap:butt;stroke-linejoin:miter;stroke-opacity:1.0000000;marker-start:url(#Arrow1M)"
     d="M 137.39752,48.590404 C 98.448961,65.862698 57.095309,41.995140 57.095309,41.995140"
     id="path1539"
     sodipodi:nodetypes="cc" />
  <path
     style="fill:none;fill-opacity:0.75000000;fill-rule:evenodd;stroke:#000000;stroke-width:0.87684736pt;stroke-linecap:butt;stroke-linejoin:miter;stroke-opacity:1.0000000;marker-start:url(#Arrow1M)"
     d="M 165.28711,91.073075 C 183.38622,75.567837 169.61959,47.891968 169.61959,47.891968"
     id="path1540"
     sodipodi:nodetypes="cc" />
  <path
     style="fill:none;fill-opacity:0.75000000;fill-rule:evenodd;stroke:#000000;stroke-width:0.87684736pt;stroke-linecap:butt;stroke-linejoin:miter;stroke-opacity:1.0000000;marker-start:url(#Arrow1M)"
     d="M 179.52422,122.36877 C 190.98220,111.86563 168.33687,104.61175 168.33687,104.61175"
     id="path1541"
     sodipodi:nodetypes="cc" />
  <path
     style="fill:none;fill-opacity:0.75000000;fill-rule:evenodd;stroke:#000000;stroke-width:0.87684736pt;stroke-linecap:butt;stroke-linejoin:miter;stroke-opacity:1.0000000;marker-start:url(#Arrow1M)"
     d="M 103.07186,116.73734 C 116.43949,101.46005 90.611946,93.232776 90.611946,93.232776"
     id="path1542"
     sodipodi:nodetypes="cc" />
  <path
     style="fill:none;fill-opacity:0.75000000;fill-rule:evenodd;stroke:#000000;stroke-width:0.87684736pt;stroke-linecap:butt;stroke-linejoin:miter;stroke-opacity:1.0000000;marker-start:url(#Arrow1M)"
     d="M 46.104316,129.05258 C 58.517115,136.69123 74.350239,132.27341 74.350239,132.27341"
     id="path1543"
     sodipodi:nodetypes="cc" />
  <path
     style="fill:none;fill-opacity:0.75000000;fill-rule:evenodd;stroke:#000000;stroke-width:0.87684736pt;stroke-linecap:butt;stroke-linejoin:miter;stroke-opacity:1.0000000;marker-start:url(#Arrow1M)"
     d="M 56.102882,82.035978 C 37.558814,74.267874 47.369323,42.129371 46.229214,44.979641"
     id="path1544"
     sodipodi:nodetypes="cc" />
  <g
     id="g2937"
     transform="matrix(0.876847,0.000000,0.000000,0.876847,161.6123,0.401023)">
    <path
       sodipodi:type="arc"
       style="fill:#ff0000;fill-opacity:0.75000000;fill-rule:evenodd;stroke:#000000;stroke-width:1.0000000pt;stroke-linecap:butt;stroke-linejoin:miter;stroke-opacity:1.0000000"
       id="path5557"
       sodipodi:cx="66.425110"
       sodipodi:cy="79.397659"
       sodipodi:rx="26.134470"
       sodipodi:ry="14.700639"
       d="M 92.559580 79.397659 A 26.134470 14.700639 0 1 1  40.290640,79.397659 A 26.134470 14.700639 0 1 1  92.559580 79.397659 z"
       transform="matrix(0.694799,0.000000,0.000000,0.751314,-1.214710,147.2927)" />
    <text
       xml:space="preserve"
       style="font-size:12.000000;font-style:normal;font-variant:normal;font-weight:normal;font-stretch:normal;fill:#000000;fill-opacity:1.0000000;stroke:none;stroke-width:1.0000000pt;stroke-linecap:butt;stroke-linejoin:miter;stroke-opacity:1.0000000;font-family:Bitstream Charter;text-anchor:start;writing-mode:lr-tb"
       x="74.358353"
       y="206.49611"
       id="text5568"
       sodipodi:linespacing="100%"><tspan
         x="74.358353"
         y="206.49611"
         sodipodi:role="line"
         id="tspan5584">Root object</tspan><tspan
         sodipodi:role="line"
         id="tspan2942"
         x="74.358353"
         y="218.49611">(threaded)</tspan></text>
  </g>
  <g
     id="g2956"
     transform="matrix(0.876847,0.000000,0.000000,0.876847,0.272439,0.401023)">
    <path
       sodipodi:type="arc"
       style="fill:none;fill-opacity:0.75000000;fill-rule:evenodd;stroke:#000000;stroke-width:1.0000000pt;stroke-linecap:butt;stroke-linejoin:miter;stroke-opacity:1.0000000"
       id="path5558"
       sodipodi:cx="66.425110"
       sodipodi:cy="79.397659"
       sodipodi:rx="26.134470"
       sodipodi:ry="14.700639"
       d="M 92.559580 79.397659 A 26.134470 14.700639 0 1 1  40.290640,79.397659 A 26.134470 14.700639 0 1 1  92.559580 79.397659 z"
       transform="matrix(0.694799,0.000000,0.000000,0.751314,443.6841,147.2927)" />
    <text
       xml:space="preserve"
       style="font-size:12.000000;font-style:normal;font-variant:normal;font-weight:normal;font-stretch:normal;fill:#000000;fill-opacity:1.0000000;stroke:none;stroke-width:1.0000000pt;stroke-linecap:butt;stroke-linejoin:miter;stroke-opacity:1.0000000;font-family:Bitstream Charter;text-anchor:start;writing-mode:lr-tb"
       x="520.62842"
       y="210.25578"
       id="text5581"
       sodipodi:linespacing="100%"><tspan
         x="520.62842"
         y="210.25578"
         sodipodi:role="line"
         id="tspan8535">Passive object (unthreaded)</tspan></text>
  </g>
  <rect
     style="fill:#e2ffff;fill-opacity:1.0000000;fill-rule:evenodd;stroke:#000000;stroke-width:1.0960592;stroke-linecap:butt;stroke-linejoin:miter;stroke-miterlimit:4.0000000;stroke-dasharray:3.2881773 3.2881773 ;stroke-dashoffset:0.0000000;stroke-opacity:1.0000000"
     id="rect6949"
     width="175.82819"
     height="131.04871"
     x="228.68730"
     y="17.295630"
     rx="9.0993061"
     ry="9.6150169" />
  <path
     sodipodi:type="arc"
     style="fill:#ff0000;fill-opacity:0.75000000;fill-rule:evenodd;stroke:#000000;stroke-width:1.0000000pt;stroke-linecap:butt;stroke-linejoin:miter;stroke-opacity:1.0000000"
     id="path2274"
     sodipodi:cx="66.425110"
     sodipodi:cy="79.397659"
     sodipodi:rx="26.134470"
     sodipodi:ry="14.700639"
     d="M 92.559580 79.397659 A 26.134470 14.700639 0 1 1  40.290640,79.397659 A 26.134470 14.700639 0 1 1  92.559580 79.397659 z"
     transform="matrix(0.609232,0.000000,0.000000,0.658788,218.5358,-18.43940)" />
  <rect
     style="fill:#e2ffff;fill-opacity:1.0000000;fill-rule:evenodd;stroke:#000000;stroke-width:1.0960592;stroke-linecap:butt;stroke-linejoin:miter;stroke-miterlimit:4.0000000;stroke-dasharray:3.2881773 3.2881773 ;stroke-dashoffset:0.0000000;stroke-opacity:1.0000000"
     id="rect8564"
     width="175.82819"
     height="131.04871"
     x="442.14505"
     y="16.579588"
     rx="9.0993061"
     ry="9.6150169" />
  <path
     sodipodi:type="arc"
     style="fill:#ff0000;fill-opacity:0.75000000;fill-rule:evenodd;stroke:#000000;stroke-width:1.0000000pt;stroke-linecap:butt;stroke-linejoin:miter;stroke-opacity:1.0000000"
     id="path2275"
     sodipodi:cx="66.425110"
     sodipodi:cy="79.397659"
     sodipodi:rx="26.134470"
     sodipodi:ry="14.700639"
     d="M 92.559580 79.397659 A 26.134470 14.700639 0 1 1  40.290640,79.397659 A 26.134470 14.700639 0 1 1  92.559580 79.397659 z"
     transform="matrix(0.609232,0.000000,0.000000,0.658788,489.9837,-6.514480)" />
  <path
     sodipodi:type="arc"
     style="fill:#ffffff;fill-opacity:1.0000000;fill-rule:evenodd;stroke:#000000;stroke-width:1.0000000pt;stroke-linecap:butt;stroke-linejoin:miter;stroke-opacity:1.0000000"
     id="path2276"
     sodipodi:cx="66.425110"
     sodipodi:cy="79.397659"
     sodipodi:rx="26.134470"
     sodipodi:ry="14.700639"
     d="M 92.559580 79.397659 A 26.134470 14.700639 0 1 1  40.290640,79.397659 A 26.134470 14.700639 0 1 1  92.559580 79.397659 z"
     transform="matrix(0.609232,0.000000,0.000000,0.658788,485.2096,55.54952)" />
  <path
     sodipodi:type="arc"
     style="fill:#ffffff;fill-opacity:1.0000000;fill-rule:evenodd;stroke:#000000;stroke-width:1.0000000pt;stroke-linecap:butt;stroke-linejoin:miter;stroke-opacity:1.0000000"
     id="path2277"
     sodipodi:cx="66.425110"
     sodipodi:cy="79.397659"
     sodipodi:rx="26.134470"
     sodipodi:ry="14.700639"
     d="M 92.559580 79.397659 A 26.134470 14.700639 0 1 1  40.290640,79.397659 A 26.134470 14.700639 0 1 1  92.559580 79.397659 z"
     transform="matrix(0.609232,0.000000,0.000000,0.658788,248.6130,35.98593)" />
  <path
     sodipodi:type="arc"
     style="fill:#ffffff;fill-opacity:1.0000000;fill-rule:evenodd;stroke:#000000;stroke-width:1.0000000pt;stroke-linecap:butt;stroke-linejoin:miter;stroke-opacity:1.0000000"
     id="path2279"
     sodipodi:cx="66.425110"
     sodipodi:cy="79.397659"
     sodipodi:rx="26.134470"
     sodipodi:ry="14.700639"
     d="M 92.559580 79.397659 A 26.134470 14.700639 0 1 1  40.290640,79.397659 A 26.134470 14.700639 0 1 1  92.559580 79.397659 z"
     transform="matrix(0.609232,0.000000,0.000000,0.658788,260.0711,74.17923)" />
  <path
     sodipodi:type="arc"
     style="fill:#ffffff;fill-opacity:1.0000000;fill-rule:evenodd;stroke:#000000;stroke-width:1.0000000pt;stroke-linecap:butt;stroke-linejoin:miter;stroke-opacity:1.0000000"
     id="path2280"
     sodipodi:cx="66.425110"
     sodipodi:cy="79.397659"
     sodipodi:rx="26.134470"
     sodipodi:ry="14.700639"
     d="M 92.559580 79.397659 A 26.134470 14.700639 0 1 1  40.290640,79.397659 A 26.134470 14.700639 0 1 1  92.559580 79.397659 z"
     transform="matrix(0.609232,0.000000,0.000000,0.658788,492.8483,81.32994)" />
  <path
     style="fill:none;fill-opacity:0.75000000;fill-rule:evenodd;stroke:#000000;stroke-width:0.87684736pt;stroke-linecap:butt;stroke-linejoin:miter;stroke-opacity:1.0000000;marker-start:url(#Arrow1M)"
     d="M 349.81993,47.932841 C 310.87138,65.205135 273.80402,34.479496 273.80402,34.479496"
     id="path2281"
     sodipodi:nodetypes="cc" />
  <path
     style="fill:none;fill-opacity:0.75000000;fill-rule:evenodd;stroke:#000000;stroke-width:0.87684736pt;stroke-linecap:butt;stroke-linejoin:miter;stroke-opacity:1.0000000;marker-start:url(#Arrow1M)"
     d="M 538.87440,94.701810 C 556.97353,79.196572 543.20690,51.520704 543.20690,51.520704"
     id="path2282"
     sodipodi:nodetypes="cc" />
  <path
     style="fill:none;fill-opacity:0.75000000;fill-rule:evenodd;stroke:#000000;stroke-width:0.87684736pt;stroke-linecap:butt;stroke-linejoin:miter;stroke-opacity:1.0000000;marker-start:url(#Arrow1M)"
     d="M 553.11153,125.99751 C 564.56951,115.49437 541.92419,108.24049 541.92419,108.24049"
     id="path2283"
     sodipodi:nodetypes="cc" />
  <path
     style="fill:none;fill-opacity:0.75000000;fill-rule:evenodd;stroke:#000000;stroke-width:0.87684736pt;stroke-linecap:butt;stroke-linejoin:miter;stroke-opacity:1.0000000;marker-start:url(#Arrow1M)"
     d="M 312.06524,114.36526 C 325.43287,99.087968 304.74888,91.717953 304.74888,91.717953"
     id="path2284"
     sodipodi:nodetypes="cc" />
  <path
     style="fill:none;fill-opacity:0.75000000;fill-rule:evenodd;stroke:#000000;stroke-width:0.87684736pt;stroke-linecap:butt;stroke-linejoin:miter;stroke-opacity:1.0000000;marker-start:url(#Arrow1M)"
     d="M 267.67587,87.299987 C 244.47709,84.412558 251.77254,42.026166 254.62282,43.166277"
     id="path2306"
     sodipodi:nodetypes="cc" />
  <rect
     style="fill:#e2ffff;fill-opacity:1.0000000;fill-rule:evenodd;stroke:#000000;stroke-width:1.0960592;stroke-linecap:butt;stroke-linejoin:miter;stroke-miterlimit:4.0000000;stroke-dasharray:3.2881773 3.2881773 ;stroke-dashoffset:0.0000000;stroke-opacity:1.0000000"
     id="rect8530"
     width="32.665764"
     height="17.033117"
     x="30.296484"
     y="171.71948"
     rx="9.0993061"
     ry="5.7043705" />
  <text
     xml:space="preserve"
     style="font-size:10.522167;font-style:normal;font-variant:normal;font-weight:normal;font-stretch:normal;fill:#000000;fill-opacity:1.0000000;stroke:none;stroke-width:1.0000000pt;stroke-linecap:butt;stroke-linejoin:miter;stroke-opacity:1.0000000;font-family:Bitstream Charter;text-anchor:start;writing-mode:lr-tb"
     x="74.490303"
     y="178.87181"
     id="text8537"
     sodipodi:linespacing="100%"><tspan
       x="74.490303"
       y="178.87181"
       sodipodi:role="line"
       id="tspan9199">Active object</tspan><tspan
       y="189.39398"
       x="74.490303"
       id="tspan18618"
       sodipodi:role="line">sub system</tspan></text>
  <path
     sodipodi:type="arc"
     style="fill:#ffffff;fill-opacity:1.0000000;fill-rule:evenodd;stroke:#000000;stroke-width:1.0000000pt;stroke-linecap:butt;stroke-linejoin:miter;stroke-opacity:1.0000000"
     id="path9192"
     sodipodi:cx="66.425110"
     sodipodi:cy="79.397659"
     sodipodi:rx="26.134470"
     sodipodi:ry="14.700639"
     d="M 92.559580 79.397659 A 26.134470 14.700639 0 1 1  40.290640,79.397659 A 26.134470 14.700639 0 1 1  92.559580 79.397659 z"
     transform="matrix(0.609232,0.000000,0.000000,0.658788,330.9976,-6.207177)" />
  <path
     sodipodi:type="arc"
     style="fill:#ffffff;fill-opacity:1.0000000;fill-rule:evenodd;stroke:#000000;stroke-width:1.0000000pt;stroke-linecap:butt;stroke-linejoin:miter;stroke-opacity:1.0000000"
     id="path9193"
     sodipodi:cx="66.425110"
     sodipodi:cy="79.397659"
     sodipodi:rx="26.134470"
     sodipodi:ry="14.700639"
     d="M 92.559580 79.397659 A 26.134470 14.700639 0 1 1  40.290640,79.397659 A 26.134470 14.700639 0 1 1  92.559580 79.397659 z"
     transform="matrix(0.609232,0.000000,0.000000,0.658788,323.5475,46.91163)" />
  <path
     sodipodi:type="arc"
     style="fill:#ffffff;fill-opacity:1.0000000;fill-rule:evenodd;stroke:#000000;stroke-width:1.0000000pt;stroke-linecap:butt;stroke-linejoin:miter;stroke-opacity:1.0000000"
     id="path9194"
     sodipodi:cx="66.425110"
     sodipodi:cy="79.397659"
     sodipodi:rx="26.134470"
     sodipodi:ry="14.700639"
     d="M 92.559580 79.397659 A 26.134470 14.700639 0 1 1  40.290640,79.397659 A 26.134470 14.700639 0 1 1  92.559580 79.397659 z"
     transform="matrix(0.609232,0.000000,0.000000,0.658788,331.1862,72.69206)" />
  <path
     style="fill:none;fill-opacity:0.75000000;fill-rule:evenodd;stroke:#000000;stroke-width:0.87684736pt;stroke-linecap:butt;stroke-linejoin:miter;stroke-opacity:1.0000000;marker-start:url(#Arrow1M)"
     d="M 391.44951,117.35962 C 402.90747,106.85648 380.26215,99.602599 380.26215,99.602599"
     id="path9195"
     sodipodi:nodetypes="cc" />
  <path
     style="fill:none;fill-opacity:0.75000000;fill-rule:evenodd;stroke:#000000;stroke-width:0.87684736pt;stroke-linecap:butt;stroke-linejoin:miter;stroke-opacity:1.0000000;marker-start:url(#Arrow1M)"
     d="M 378.79553,88.263813 C 396.89463,72.758577 379.69897,53.655307 379.69897,53.655307"
     id="path9196"
     sodipodi:nodetypes="cc" />
  <path
     style="fill:none;fill-opacity:0.75000000;fill-rule:evenodd;stroke:#000000;stroke-width:0.87684736pt;stroke-linecap:butt;stroke-linejoin:miter;stroke-opacity:1.0000000;marker-start:url(#Arrow1M)"
     d="M 516.63153,34.073921 C 486.25556,11.912251 175.72224,-13.669826 62.563911,30.050436"
     id="path9197"
     sodipodi:nodetypes="cc" />
  <path
     style="fill:none;fill-opacity:0.75000000;fill-rule:evenodd;stroke:#000000;stroke-width:0.87684736pt;stroke-linecap:butt;stroke-linejoin:miter;stroke-opacity:1.0000000;marker-start:url(#Arrow1M)"
     d="M 243.16554,44.361042 C 218.79041,82.207579 171.43594,100.34577 167.14964,100.34577"
     id="path9198"
     sodipodi:nodetypes="cc" />
  <text
     xml:space="preserve"
     style="font-size:9.6453199;font-style:normal;font-variant:normal;font-weight:normal;font-stretch:normal;fill:#000000;fill-opacity:1.0000000;fill-rule:evenodd;stroke:none;stroke-width:1.0000000pt;stroke-linecap:butt;stroke-linejoin:miter;stroke-opacity:1.0000000;font-family:Bitstream Charter;text-anchor:start;writing-mode:lr-tb"
     x="57.495296"
     y="159.40685"
     id="text2961"
     sodipodi:linespacing="100%"><tspan
       sodipodi:role="line"
       id="tspan2963"
       x="57.495296"
       y="159.40685">Active object A</tspan></text>
  <text
     xml:space="preserve"
     style="font-size:9.6453199;font-style:normal;font-variant:normal;font-weight:normal;font-stretch:normal;fill:#000000;fill-opacity:1.0000000;fill-rule:evenodd;stroke:none;stroke-width:1.0000000pt;stroke-linecap:butt;stroke-linejoin:miter;stroke-opacity:1.0000000;font-family:Bitstream Charter;text-anchor:start;writing-mode:lr-tb"
     x="284.41833"
     y="159.80074"
     id="text3729"
     sodipodi:linespacing="100%"><tspan
       sodipodi:role="line"
       id="tspan3731"
       x="284.41833"
       y="159.80074">Active object B</tspan></text>
  <text
     xml:space="preserve"
     style="font-size:9.6453199;font-style:normal;font-variant:normal;font-weight:normal;font-stretch:normal;fill:#000000;fill-opacity:1.0000000;fill-rule:evenodd;stroke:none;stroke-width:1.0000000pt;stroke-linecap:butt;stroke-linejoin:miter;stroke-opacity:1.0000000;font-family:Bitstream Charter;text-anchor:start;writing-mode:lr-tb"
     x="509.43033"
     y="159.80072"
     id="text3733"
     sodipodi:linespacing="100%"><tspan
       sodipodi:role="line"
       id="tspan3735"
       x="509.43033"
       y="159.80072">Active object C</tspan></text>
</svg>
